PathFileType	4	(X/Y/Z)	C:\Users\WrightLab\Desktop\Jo\P1.2Trial9.trc
DataRate	CameraRate	NumFrames	NumMarkers	Units	OrigDataRate	OrigDataStartFrame	OrigNumFrames
100.00	100.00	       17	19	mm	100.00	404	       538
Frame#	Time	Headset_Front			Headset_Back			Headset_Left			Headset_Right			Left_Shoulder			Right_Shoulder			Sternum			C7			Left Elbow			Right Elbow			Left Wrist			Right Wrist			Left ASIS			Right ASIS			S2			Left Knee			Right Knee			Left Ankle			Right Ankle			
		X1	Y1	Z1	X2	Y2	Z2	X3	Y3	Z3	X4	Y4	Z4	X5	Y5	Z5	X6	Y6	Z6	X7	Y7	Z7	X8	Y8	Z8	X9	Y9	Z9	X10	Y10	Z10	X11	Y11	Z11	X12	Y12	Z12	X13	Y13	Z13	X14	Y14	Z14	X15	Y15	Z15	X16	Y16	Z16	X17	Y17	Z17	X18	Y18	Z18	X19	Y19	Z19	

404	4.030	-69.67529	1455.18701	1943.07434				136.07118	1498.23535	1945.67468				288.25446	1285.06775	1983.34680	-38.47143	1271.83350	1710.38867				193.31291	1335.82324	1759.18848	390.00122	1025.90784	2076.57935	-39.68980	1040.36743	1589.77600	342.31799	856.42035	2243.75757	-145.83012	809.29846	1528.79846	194.80939	908.70569	2008.22437	-43.07681	884.41418	1864.55225	243.93077	944.25592	1691.06262	272.80069	459.31030	1950.53210	-59.93459	501.98123	1952.38245	398.61111	155.80734	1809.86499	-100.01207	207.99673	2068.19824	
405	4.040	-76.92111	1453.79834	1949.00037				129.31047	1496.55579	1954.81714				281.18350	1283.84900	1992.41516	-43.98635	1270.01062	1717.74280				187.70641	1333.47925	1767.32239	380.79718	1024.06958	2086.50098	-40.48722	1035.40259	1600.96252	332.13412	855.62781	2255.46021	-143.42935	807.24750	1533.10083	188.39404	907.65582	2016.88586	-48.61373	881.96869	1870.62268	238.87679	941.57281	1697.80920	268.58881	458.24133	1959.06970	-63.66545	498.88297	1958.55933	398.06125	155.66174	1810.41077	-110.72441	210.58607	2077.84180	
406	4.050	-83.15872	1451.66809	1953.77051				123.13354	1494.32568	1960.83960				274.05072	1281.72559	2000.18933	-49.35313	1267.79590	1724.11755	39.70089	1207.09290	1958.82776	181.93500	1331.19678	1774.14246	372.03857	1021.42926	2095.67261	-41.62181	1034.00342	1603.31836	321.26962	853.24005	2264.17651	-141.19914	804.79431	1537.32971	181.89262	905.99152	2024.41992	-54.70687	880.67444	1878.48669	233.08498	939.06543	1707.49609	265.20309	455.56143	1966.76208	-67.39883	496.78561	1965.89185	397.63815	155.64833	1810.69312	-121.14246	212.03749	2087.79956	
407	4.060	-89.67783	1450.67188	1959.11829				115.96671	1492.15271	1967.93848				267.05490	1279.99805	2007.12610	-55.80390	1265.90247	1731.22107	32.73629	1206.48193	1966.24353	176.76991	1328.57312	1782.52588	362.74387	1019.67822	2105.26929	-41.68903	1033.50574	1606.54211	310.04733	852.74542	2273.54956	-138.92696	802.28619	1541.17981	174.25243	905.09418	2032.93054	-60.67170	878.66107	1886.90991	227.90633	937.01428	1714.45300	261.14090	454.81906	1974.74915	-72.39131	495.75012	1973.12671	396.47479	158.46590	1813.55835	-130.09305	212.49956	2092.80420	
408	4.070							109.32444	1490.13635	1975.09314				259.77078	1278.59375	2016.14746	-61.97538	1263.42029	1737.91895	25.19091	1204.60425	1972.36487	169.89496	1326.26807	1788.07349	353.35318	1017.50916	2112.98291	-43.19546	1030.64917	1610.71680	300.10699	850.74731	2281.73169	-138.00348	798.78583	1545.47205	167.41068	904.21771	2041.52100	-66.83736	876.19818	1893.88672	221.67516	933.99194	1724.12659	256.25284	454.47711	1984.40540	-78.24159	494.76364	1980.38086	395.74698	159.06848	1814.16492	-138.73279	212.13452	2099.25977	
409	4.080	-104.18170	1448.10132	1968.22827				101.98581	1488.10559	1981.02771				252.18848	1276.77209	2022.40027				18.23783	1204.32996	1979.80542	163.41141	1323.84790	1795.52148	344.18250	1015.85938	2121.80249	-45.41626	1028.66931	1617.32141	289.10385	848.65704	2289.93579	-136.98337	796.24707	1550.64575	160.20659	903.45209	2049.81836	-73.29045	875.26086	1901.75623	215.82393	931.88873	1732.72070	252.52649	452.42880	1992.21289	-85.44273	494.62302	1989.32935	394.22839	160.58771	1816.52063	-145.49342	208.20726	2104.07422	
410	4.090	-110.91955	1447.15771	1972.51001				95.01169	1486.64929	1988.01697				244.76231	1275.57031	2030.11865				10.05264	1202.48706	1985.73438	156.32785	1321.66321	1802.19568	334.61127	1013.13660	2128.20972	-48.24345	1025.46033	1623.59900	278.58295	847.16663	2296.63281	-136.73119	793.06232	1555.72815	152.44382	902.27069	2057.42236	-79.93954	873.41370	1910.75305	209.26372	928.58514	1741.51013	247.33908	452.51770	2001.30798	-93.55870	494.13629	1998.27942	393.26401	162.48317	1818.13733	-150.66306	203.22171	2109.08545	
411	4.100	-118.85416	1447.07532	1977.86780				87.56049	1485.11572	1994.33789				236.37425	1273.70117	2036.84229				1.62575	1201.55286	1992.14441	149.70818	1319.50232	1809.17737	325.16953	1010.57751	2135.28540	-52.45869	1021.84808	1632.97607	267.74265	844.99750	2303.64673	-136.63162	788.99298	1561.41907	144.38824	902.63098	2067.40942	-87.32977	871.69836	1918.71619	201.61946	926.54266	1749.57056	243.06090	451.46030	2008.65906	-102.43566	493.69904	2007.40369	392.66010	164.23750	1819.70911	-154.86124	195.84076	2112.35352	
412	4.110	-126.25625	1446.91614	1982.24231				79.97907	1483.33740	1999.51050				228.19916	1272.64233	2045.20654				-6.84653	1200.71753	1999.33252	142.31645	1317.31677	1815.30383	315.60898	1008.54883	2142.34009	-56.35725	1019.49158	1639.44727	257.02173	842.35486	2309.53003	-137.44408	786.03046	1565.52954	136.52940	901.25574	2075.22803	-94.27314	870.07751	1927.27588	194.01093	924.09839	1758.22546	237.74974	451.05759	2017.59753	-111.78264	492.87195	2015.95203	391.14059	166.11691	1821.70215	-157.25587	187.43315	2114.33423	
413	4.120	-134.29805	1446.82617	1986.97107				72.24661	1482.51123	2006.99988				219.14760	1270.91028	2051.59961				-15.58400	1199.48535	2005.83105	134.95856	1315.81421	1822.42273	305.81821	1006.50360	2148.90820	-60.29528	1015.29181	1649.41956	246.37112	839.96594	2315.07007	-138.98637	782.81775	1571.61157	128.30128	901.19147	2084.13550	-102.54819	869.05029	1935.52917	186.38550	921.39496	1767.90881	233.49298	450.19638	2024.17236	-120.32768	491.11218	2024.29834	390.66882	169.31393	1825.31909	-160.04552	179.50284	2117.76245	
414	4.130	-142.07127	1447.94153	1990.84351				64.50406	1481.12036	2012.79480				210.27116	1269.42700	2058.22241				-24.95747	1199.11450	2012.36292	127.36150	1314.05469	1830.22266	295.92374	1004.89282	2154.53052	-64.92638	1012.81458	1655.41394	235.97223	836.53369	2319.23999	-140.24423	779.47150	1578.60181	118.92883	901.64172	2093.94946	-110.60841	867.93433	1944.58081	179.09979	919.63867	1775.16199	227.47173	450.61230	2032.88831	-129.01329	488.37906	2032.80225	389.80914	173.13690	1828.34778	-163.18463	175.09489	2120.33325	
415	4.140	-149.85782	1448.48145	1994.38745				56.40905	1480.70557	2017.70825				201.26678	1268.68640	2065.84619				-34.85037	1199.19507	2019.30640	119.46149	1312.89709	1835.58032	285.97287	1003.26886	2159.89380	-69.64834	1010.27588	1663.21692	225.27911	833.32422	2323.35059	-142.77147	776.46057	1584.91089	110.31762	901.52429	2102.28174	-119.60162	867.91241	1952.69788	170.93547	917.22266	1784.35999	220.84572	450.81335	2041.69849	-137.82509	485.33148	2040.96924	388.58121	176.78926	1833.06030	-169.65561	173.99911	2123.51782	
416	4.150	-158.41508	1450.00256	1998.61975				48.20514	1480.45337	2023.89148				191.63069	1267.52026	2073.67603				-44.22161	1199.00305	2025.01648	111.72900	1312.05444	1842.30090	276.07968	1000.74817	2165.14404	-74.77114	1008.58887	1668.58887	215.36932	831.02039	2327.63794	-144.78276	772.79419	1592.08350	100.26162	902.06970	2111.25806				162.46452	916.43176	1795.26917	214.90276	450.29504	2049.51294	-145.84499	481.75891	2049.07910	387.24539	180.90974	1838.18787	-177.31206	174.47679	2127.97974	
417	4.160	-166.99522	1452.43628	2002.39026				39.71886	1481.47290	2030.77490				182.01494	1266.66479	2080.00928				-54.11221	1198.89160	2030.64624	103.36942	1311.32813	1849.59534	265.55658	999.68243	2170.37695	-80.23766	1006.85950	1676.21167	205.41438	827.72217	2331.34521	-147.68210	770.46143	1598.94128	90.14634	903.11670	2119.88550				153.92705	915.55554	1805.13428	208.05527	450.39203	2058.26294	-153.81012	478.36499	2055.26025	384.66937	186.41368	1845.27893	-184.65318	172.57829	2133.41260	
418	4.170	-175.09474	1454.38806	2005.70654				31.47420	1481.74194	2036.77710				172.49922	1266.37122	2086.44873				-63.99406	1200.41833	2036.18848	95.42120	1311.48364	1856.98206	254.85646	998.31592	2174.86987	-85.83302	1004.86334	1684.55615	195.23828	824.71191	2332.83618	-151.24391	768.08008	1609.51685	79.73788	904.34845	2128.06128				145.63567	913.56268	1814.24854	198.70427	451.57803	2070.56006	-162.21867	475.85065	2061.98926	381.87616	191.89499	1854.42322	-190.73929	169.19868	2137.90234	
419	4.180	-183.27634	1456.84253	2009.30359				22.89877	1482.98975	2042.05420				163.11153	1267.11035	2094.24658				-73.79157	1201.03455	2042.35059	87.66882	1311.87329	1864.14429				-91.69563	1003.92218	1692.44604	185.49820	822.35681	2336.36157	-154.49989	766.13519	1616.97595	68.98650	905.86639	2135.59351				136.93945	914.44763	1824.65759	190.55275	452.06082	2080.64722	-169.89482	474.26862	2068.57080	378.25949	196.54956	1863.12756	-196.09212	164.61681	2143.17651	
420	4.190	-191.23560	1459.09631	2012.49451				14.32320	1483.75684	2047.77698				153.72015	1267.84192	2102.27808				-83.51526	1203.37170	2048.46997	79.60413	1312.91382	1870.55750				-97.97227	1003.55615	1699.82080	175.66251	819.45667	2337.83423	-158.66467	765.24689	1626.00122	57.13797	908.07758	2143.36279				128.27596	914.71912	1833.72229	181.31192	453.88507	2091.89087	-178.17197	474.25708	2073.42871	374.47470	202.93570	1875.34802	-201.09679	160.98697	2147.55615	
